<?xml version="1.0" standalone="no"?><!DOCTYPE svg PUBLIC "-//W3C//DTD SVG 1.1//EN" "http://www.w3.org/Graphics/SVG/1.1/DTD/svg11.dtd"><svg t="1780932814257" class="icon" viewBox="0 0 1024 1024" version="1.1" xmlns="http://www.w3.org/2000/svg" p-id="5173" xmlns:xlink="http://www.w3.org/1999/xlink" width="200" height="200"><path d="M513.031426 1021.112006A510.246575 510.246575 0 1 1 1023.174859 510.865431 510.762288 510.762288 0 0 1 513.031426 1021.112006z m-42.288477-234.546333a21.763094 21.763094 0 0 0-21.659951 21.763094 21.763094 21.763094 0 0 0 21.659951 21.763094h84.370669a21.763094 21.763094 0 0 0 21.763094-21.763094 22.278807 22.278807 0 0 0-21.763094-21.763094h-2.578566zM419.790492 721.998388a21.763094 21.763094 0 0 0-21.763095 21.763095 22.588235 22.588235 0 0 0 21.763095 22.278807h185.656728a22.485093 22.485093 0 0 0 22.38195-22.278807A21.866237 21.866237 0 0 0 606.066076 721.998388z m90.662369-530.771958a260.847703 260.847703 0 0 0-259.403707 258.372281v2.578565a261.053989 261.053989 0 0 0 107.784045 209.792104 33.211926 33.211926 0 0 1 10.314263 13.717969A34.759065 34.759065 0 0 0 402.256245 698.069299h221.85979a34.965351 34.965351 0 0 0 32.386785-22.38195 32.386785 32.386785 0 0 1 10.314263-13.717969A260.125705 260.125705 0 0 0 516.744561 191.123288z m166.678485 243.622885a21.96938 21.96938 0 0 1-21.763095-21.763094V412.570508a95.613215 95.613215 0 0 0-95.510072-94.891217h-2.165995a21.866237 21.866237 0 0 1-21.659952-20.628525 22.485093 22.485093 0 0 1 22.278807-22.381951A140.377115 140.377115 0 0 1 697.450443 412.570508a22.175665 22.175665 0 0 1-20.009669 22.278807z" fill="#FF5E34" p-id="5174"></path></svg>