<svg viewBox="0 0 200 200" xmlns="http://www.w3.org/2000/svg" width="32" height="32">
  <path d="M117.8,66.6c-0.5-0.5-0.9-1.2-1.1-2c-2-11.8-6.2-17.1-12.6-17.1c-6.9,0-12,4.2-15.5,13.3L88.3,81c0,1.9-1.6,3.5-3.6,3.4c-1.4,0-2.6-0.9-3.2-2.1C73.5,62.7,65.2,57.1,56,62.9c-9.2,5.9-7.4,16.5,7.3,33.6c1.3,1.5,1.1,3.7-0.4,4.9c-1.1,1-2.7,1.1-4,0.4l-12.3-6.9c-7.1-2.6-11.8-1.3-15.1,3.6c-1.5,2.3-1.4,5.8,0.5,10.4c1.1,2.8,2.8,5.8,4.9,9c1.1,1.7,2.2,3.2,3.6,5.1c-0.2-0.3,2.2,3,2.7,3.6c5.3,7.6,17.4,21.7,20,22.7c4,1.5,8.3,9.4,14.6,25.2h25.2l17.7-15.9l10.6,15.9h9.4v-16.9l0.6-0.8c10.5-14.7,17.4-24.7,20.5-29.9c1.9-3.1,3.4-7.1,6.1-15.4c0.3-1,0.3-1,0.7-2.1c2.6-7.9,4-11.9,5.9-15.6c4-8.1,2.9-12.2-3.7-14.6c-4.4-1.6-10.5,0.1-18.2,5.6c-1.6,1.1-3.8,0.8-4.9-0.8c-0.4-0.6-0.7-1.3-0.7-2V65.7c-2.7-5.9-6.3-8.6-11.1-8.6c-4.5,0-8.4,2.3-11.8,7.3v18.1c0,1.8-1.4,3.2-3.2,3.2s-3.2-1.4-3.2-3.2L117.8,66.6L117.8,66.6z" fill="#fff"/>
  <path d="M117.8,66.6c-0.5-0.5-0.9-1.2-1.1-2c-2-11.8-6.2-17.1-12.6-17.1c-6.9,0-12,4.2-15.5,13.3L88.3,81c0,1.9-1.6,3.5-3.6,3.4c-1.4,0-2.6-0.9-3.2-2.1C73.5,62.7,65.2,57.1,56,62.9c-9.2,5.9-7.4,16.5,7.3,33.6c1.3,1.5,1.1,3.7-0.4,4.9c-1.1,1-2.7,1.1-4,0.4l-12.3-6.9c-7.1-2.6-11.8-1.3-15.1,3.6c-1.5,2.3-1.4,5.8,0.5,10.4c1.1,2.8,2.8,5.8,4.9,9c1.1,1.7,2.2,3.2,3.6,5.1c-0.2-0.3,2.2,3,2.7,3.6c5.3,7.6,17.4,21.7,20,22.7c4,1.5,8.3,9.4,14.6,25.2h25.2l17.7-15.9l10.6,15.9h9.4v-16.9l0.6-0.8c10.5-14.7,17.4-24.7,20.5-29.9c1.9-3.1,3.4-7.1,6.1-15.4c0.3-1,0.3-1,0.7-2.1c2.6-7.9,4-11.9,5.9-15.6c4-8.1,2.9-12.2-3.7-14.6c-4.4-1.6-10.5,0.1-18.2,5.6c-1.6,1.1-3.8,0.8-4.9-0.8c-0.4-0.6-0.7-1.3-0.7-2V65.7c-2.7-5.9-6.3-8.6-11.1-8.6c-4.5,0-8.4,2.3-11.8,7.3v18.1c0,1.8-1.4,3.2-3.2,3.2s-3.2-1.4-3.2-3.2L117.8,66.6L117.8,66.6z M105.4,180.9h-32l-0.8-2c-5.7-14.6-10.2-23-11.7-23.6c-4.3-1.6-16.6-16-22.9-25c-0.4-0.5-2.7-3.7-2.6-3.5c-1.4-1.9-2.6-3.6-3.8-5.4c-2.4-3.6-4.2-6.9-5.5-10.2c-2.6-6.3-2.8-11.9,0.1-16.3c5.1-7.7,13-9.6,22.8-6l0.4,0.2l0.7,0.4c-8.9-14.2-8.5-25.2,2.4-32.1c11.1-7.1,21.2-2.8,29.6,11.5l0.2-9.5l0.2-0.5c4.4-11.7,11.7-17.9,21.6-17.9c8.6,0,14.4,5.6,17.5,16.2c4-4.4,8.8-6.7,14.3-6.7c7.7,0,13.6,4.5,17.2,13l0.3,0.6v12.2c7.4-4.3,13.9-5.5,19.6-3.4c10.4,3.9,12.7,12.2,7.1,23.4c-1.7,3.4-3,7.1-5.5,14.8c-0.3,1-0.3,1-0.7,2.1c-2.9,8.8-4.5,13.1-6.7,16.7c-3.2,5.3-9.9,15.1-20.2,29.6v21.2h-19.2l-8.4-12.6L105.4,180.9L105.4,180.9z M90.8,111.1h6.3v38.1h-6.3V111.1z M109.9,111.1h6.3v38.1h-6.3V111.1z M129,111.1h6.3v38.1H129V111.1z" fill="#333"/>
</svg>
